<svg xmlns="http://www.w3.org/2000/svg" width="28" height="28" viewBox="0 0 28 28" fill="none">
  <path d="M13.3328 0.0122032C9.18318 0.269646 5.55431 2.12653 3.0437 5.2761C1.38275 7.36303 0.412496 9.69646 0.0616689 12.4681C-0.0205563 13.1363 -0.0205563 14.8672 0.0616689 15.5355C0.478277 18.8439 1.82129 21.6265 4.0907 23.8942C8.49249 28.2926 15.2733 29.2676 20.7057 26.2824C25.4802 23.6586 28.3033 18.5536 27.9634 13.1747C27.8483 11.3123 27.4755 9.82792 26.6971 8.1025L26.3957 7.43972L27.0754 6.76051C27.925 5.92245 28.0785 5.64309 27.9689 5.16107C27.8976 4.84885 27.6948 4.59141 27.3988 4.44352L27.1247 4.30658H25.409H23.6932V2.59211V0.877651L23.5561 0.603775C23.4027 0.302511 23.1505 0.10532 22.8161 0.028635C22.3502 -0.0754375 22.0761 0.0779324 21.2319 0.926949L20.5577 1.61164L20.0534 1.3761C18.5459 0.674982 17.0384 0.247736 15.5529 0.0943661C14.9061 0.028635 13.7549 -0.0151844 13.3328 0.0122032ZM15.9366 2.30181C16.9288 2.48804 17.91 2.77835 18.7268 3.12891L18.9351 3.21655L18.1402 4.02175C17.5208 4.65166 17.3344 4.87624 17.2851 5.04604C17.2467 5.18846 17.2248 5.97722 17.2248 7.26444V9.26373L15.1418 11.3452C13.1738 13.3061 13.0478 13.4431 12.971 13.7115C12.8943 13.9744 12.8943 14.0292 12.971 14.2976C13.141 14.8727 13.7111 15.1849 14.2866 15.0206C14.5497 14.9439 14.7032 14.8015 16.6492 12.8515L18.7323 10.77H20.7331C22.0213 10.77 22.8106 10.7481 22.9532 10.7098C23.1231 10.6605 23.3478 10.4743 23.9782 9.8553L24.784 9.06106L24.8717 9.26921C25.2226 10.0908 25.5131 11.0604 25.705 12.0847C25.8475 12.8515 25.8475 15.1137 25.6995 15.9189C25.2445 18.4879 24.0988 20.6789 22.2899 22.4481C20.5412 24.1626 18.513 25.2088 16.0243 25.6853C15.4707 25.7894 15.2075 25.8058 13.9906 25.8058C12.4283 25.8058 11.9405 25.7401 10.6687 25.3731C7.6209 24.4912 5.03903 22.3933 3.50416 19.5341C1.70617 16.1873 1.69521 11.871 3.48772 8.49688C4.22226 7.11107 5.38438 5.70334 6.59035 4.7393C8.18552 3.46304 10.1644 2.60307 12.2529 2.2799C13.1135 2.14296 15.1527 2.15939 15.9366 2.30181ZM21.7143 5.96079C21.7856 6.06486 21.9336 6.21275 22.0377 6.28396C22.2241 6.40994 22.2789 6.41542 23.2766 6.43185L24.3181 6.44829L23.2218 7.54379L22.1309 8.63382H20.7495H19.3627V7.25348V5.86767L20.448 4.78312L21.5279 3.70405L21.5553 4.73382C21.5827 5.7143 21.5882 5.77455 21.7143 5.96079Z" fill="#F8FBFC"/>
  <path d="M12.7021 5.48447C9.49536 5.98292 6.84223 8.21227 5.82264 11.2523C5.47729 12.2821 5.41699 12.7038 5.41699 14.002C5.41699 15.0099 5.43344 15.2564 5.53759 15.7165C6.31051 19.1837 8.80467 21.676 12.2746 22.4483C12.735 22.5524 12.9817 22.5688 13.9903 22.5688C15.284 22.5688 15.7006 22.5086 16.7476 22.1635C20.0476 21.0735 22.4266 17.9458 22.5801 14.495C22.6075 13.8103 22.6021 13.7336 22.4924 13.5255C22.1526 12.8572 21.2919 12.7312 20.7767 13.2735C20.5629 13.4981 20.4587 13.7884 20.4587 14.1773C20.4587 14.369 20.4203 14.7579 20.3765 15.0427C19.8667 18.154 17.1478 20.4655 13.9903 20.4655C10.4327 20.4655 7.52196 17.5569 7.52196 14.002C7.52196 10.847 9.83523 8.13011 12.9488 7.6207C13.2339 7.57688 13.6231 7.53854 13.8149 7.53854C14.4782 7.53854 14.9387 7.19345 15.0538 6.61284C15.1305 6.2075 14.8729 5.70905 14.4837 5.51186C14.3083 5.42422 14.1658 5.40231 13.7053 5.40778C13.3928 5.41326 12.9433 5.44613 12.7021 5.48447Z" fill="#F8FBFC"/>
</svg>