<svg xmlns="http://www.w3.org/2000/svg" width="28" height="30" viewBox="0 0 28 30" fill="none">
  <path d="M24.8889 25.9859C25.5913 22.2071 25.2842 15.4142 25.2842 15.4142C25.2842 15.4142 25.2777 15.249 25.2777 15.1642V8.52612C25.2777 8.30515 25.2613 8.08448 25.2287 7.86593L25.0007 6.33811C24.8646 5.42652 24.4502 4.57924 23.8142 3.91217L23.7544 3.84944C23.1318 3.19644 22.3273 2.74107 21.4395 2.58012C21.1857 2.53411 20.9945 2.50162 20.7083 2.4581C19.24 2.23482 18.4012 2.20562 16.9166 2.16643C16.1386 2.14589 15.7019 2.16642 14.9236 2.16642C13.5357 2.16642 12.7566 2.11497 11.3697 2.16643C9.88562 2.22149 9.04628 2.23482 7.57805 2.4581C7.29183 2.50162 7.10065 2.53411 6.84683 2.58012C5.95904 2.74107 5.15453 3.19644 4.53191 3.84944L4.4721 3.91217C3.83608 4.57924 3.42169 5.42652 3.28563 6.33811L3.0576 7.86593C3.02498 8.08448 3.0086 8.30515 3.0086 8.52612V15.1642C3.0086 15.249 3.00213 15.4142 3.00213 15.4142C3.00213 15.4142 2.69505 22.2071 3.39744 25.9859C3.45962 26.3204 3.56267 26.8177 3.58675 26.9334C3.59019 26.95 3.59314 26.9665 3.59565 26.9832C3.67226 27.4939 4.16772 27.8311 4.67094 27.715L4.90476 27.661C4.9692 27.6461 5.03161 27.6258 5.09207 27.599C5.36425 27.4785 6.18851 27.1036 6.70305 26.7637C7.78981 26.0456 9.08942 25.6002 10.3043 26.07C10.8331 26.2745 11.7152 26.9581 11.7152 26.9581C11.7152 26.9581 12.9996 27.8374 13.9514 27.8817C15.0046 27.9307 15.5676 27.2369 16.5764 26.7637C17.1306 26.5037 17.4532 26.2745 17.982 26.07C19.1969 25.6002 20.4965 26.0456 21.5833 26.7637C22.0978 27.1036 22.9221 27.4785 23.1942 27.599C23.2547 27.6258 23.3171 27.6461 23.3816 27.661L23.6154 27.715C24.1186 27.8311 24.6141 27.4939 24.6907 26.9832C24.6932 26.9665 24.6961 26.95 24.6996 26.9334C24.7236 26.8177 24.8267 26.3204 24.8889 25.9859Z" stroke="#F8FBFC" stroke-width="2.33333"/>
  <path d="M8.16672 11.6944C8.16672 12.2851 7.68791 12.7639 7.09728 12.7639C6.50664 12.7639 6.02783 12.2851 6.02783 11.6944C6.02783 11.1038 6.50664 10.625 7.09728 10.625C7.68791 10.625 8.16672 11.1038 8.16672 11.6944Z" fill="#F8FBFC"/>
  <path d="M8.16672 16.8472C8.16672 17.4379 7.68791 17.9167 7.09728 17.9167C6.50664 17.9167 6.02783 17.4379 6.02783 16.8472C6.02783 16.2566 6.50664 15.7778 7.09728 15.7778C7.68791 15.7778 8.16672 16.2566 8.16672 16.8472Z" fill="#F8FBFC"/>
  <path d="M9.62505 11.6944C9.62505 11.1038 10.1039 10.625 10.6945 10.625H21.0001C21.5907 10.625 22.0695 11.1038 22.0695 11.6944C22.0695 12.2851 21.5907 12.7639 21.0001 12.7639H10.6945C10.1039 12.7639 9.62505 12.2851 9.62505 11.6944Z" fill="#F8FBFC"/>
  <path d="M9.62505 16.8472C9.62505 16.2566 10.1039 15.7778 10.6945 15.7778H16.2362C16.8268 15.7778 17.3056 16.2566 17.3056 16.8472C17.3056 17.4379 16.8268 17.9167 16.2362 17.9167H10.6945C10.1039 17.9167 9.62505 17.4379 9.62505 16.8472Z" fill="#F8FBFC"/>
</svg>