<svg xmlns="http://www.w3.org/2000/svg" width="28" height="28" viewBox="0 0 28 28" fill="none">
  <path fill-rule="evenodd" clip-rule="evenodd" d="M14.2797 4.04916C14.0971 3.99598 13.9031 3.99598 13.7205 4.04916C13.6679 4.06447 13.5755 4.10277 13.379 4.25154C13.1724 4.408 12.9194 4.63192 12.5252 4.98233L5.78556 10.9731C5.14321 11.5441 4.96111 11.7163 4.83452 11.9067C4.71274 12.0899 4.62201 12.2919 4.566 12.5046C4.50777 12.7258 4.50008 12.9762 4.50008 13.8357V20.8367C4.50008 21.7077 4.50088 22.2998 4.53887 22.7572C4.57586 23.2027 4.64287 23.4301 4.72525 23.5887C4.915 23.9539 5.21284 24.2518 5.57813 24.4415C5.73671 24.5239 5.96409 24.5909 6.40953 24.6279C6.86694 24.6659 7.45905 24.6667 8.33008 24.6667H9.50008V21C9.50008 20.9768 9.50007 20.9539 9.50006 20.9313C9.49996 20.5338 9.49988 20.2394 9.5343 19.9779C9.7706 18.183 11.183 16.7706 12.978 16.5343C13.2394 16.4998 13.5339 16.4999 13.9313 16.5C13.9539 16.5 13.9768 16.5 14.0001 16.5C14.0233 16.5 14.0462 16.5 14.0688 16.5C14.4663 16.4999 14.7607 16.4998 15.0222 16.5343C16.8171 16.7706 18.2295 18.183 18.4659 19.9779C18.5003 20.2394 18.5002 20.5338 18.5001 20.9313C18.5001 20.9539 18.5001 20.9768 18.5001 21V24.6667H19.6701C20.5411 24.6667 21.1332 24.6659 21.5906 24.6279C22.0361 24.5909 22.2634 24.5239 22.422 24.4415C22.7873 24.2518 23.0852 23.9539 23.2749 23.5886C23.3573 23.4301 23.4243 23.2027 23.4613 22.7572C23.4993 22.2998 23.5001 21.7077 23.5001 20.8367V13.8357C23.5001 12.9762 23.4924 12.7258 23.4342 12.5046C23.3781 12.2919 23.2874 12.0899 23.1656 11.9067C23.039 11.7163 22.8569 11.5441 22.2146 10.9731L15.475 4.98233C15.0808 4.63192 14.8278 4.408 14.6211 4.25154C14.4246 4.10277 14.3322 4.06447 14.2797 4.04916ZM13.1612 2.12894C13.7091 1.96939 14.2911 1.96939 14.8389 2.12894C15.219 2.23964 15.5342 2.43432 15.8284 2.65701C16.1054 2.86673 16.4173 3.14402 16.7765 3.46334L23.5433 9.47829C23.5717 9.5035 23.5997 9.52836 23.6273 9.5529C24.149 10.0161 24.5431 10.3661 24.8312 10.7995C25.0748 11.1659 25.2562 11.5699 25.3682 11.9954C25.5008 12.4987 25.5005 13.0257 25.5001 13.7233C25.5001 13.7603 25.5001 13.7977 25.5001 13.8357V20.8787C25.5001 21.6972 25.5001 22.3728 25.4544 22.9228C25.407 23.4941 25.3051 24.019 25.0497 24.5106C24.6702 25.2412 24.0745 25.8369 23.344 26.2164C22.8523 26.4717 22.3275 26.5736 21.7561 26.6211C21.2061 26.6667 20.5306 26.6667 19.7121 26.6667L18.2816 26.6667C18.1604 26.6668 18.0158 26.6668 17.8884 26.6562C17.7407 26.644 17.5293 26.6125 17.3086 26.4978C17.0346 26.3555 16.8113 26.1321 16.669 25.8582C16.5543 25.6374 16.5228 25.426 16.5105 25.2783C16.5 25.151 16.5 25.0064 16.5001 24.8852L16.5001 21C16.5001 20.5038 16.4979 20.3526 16.483 20.239C16.3648 19.3415 15.6586 18.6353 14.7611 18.5171C14.6475 18.5022 14.4963 18.5 14.0001 18.5C13.5039 18.5 13.3526 18.5022 13.239 18.5171C12.3416 18.6353 11.6353 19.3415 11.5172 20.239C11.5022 20.3526 11.5001 20.5038 11.5001 21L11.5001 24.8852C11.5001 25.0064 11.5002 25.151 11.4896 25.2783C11.4773 25.426 11.4458 25.6375 11.3312 25.8582C11.1889 26.1321 10.9655 26.3555 10.6915 26.4978C10.4708 26.6125 10.2594 26.644 10.1117 26.6562C9.98436 26.6668 9.83971 26.6668 9.71859 26.6667L8.2881 26.6667C7.46956 26.6667 6.79401 26.6667 6.24401 26.6211C5.67266 26.5736 5.14781 26.4717 4.65618 26.2164C3.92561 25.8369 3.32992 25.2412 2.95042 24.5106C2.69504 24.019 2.59317 23.4941 2.54573 22.9228C2.50005 22.3728 2.50006 21.6972 2.50008 20.8787L2.50008 13.8357C2.50008 13.7977 2.50006 13.7603 2.50004 13.7233C2.49967 13.0257 2.4994 12.4987 2.63192 11.9954C2.74395 11.5699 2.9254 11.1659 3.16896 10.7995C3.45708 10.3661 3.85117 10.0161 4.37284 9.55291C4.40048 9.52836 4.42847 9.5035 4.45683 9.47829L11.2237 3.46333C11.5829 3.14402 11.8948 2.86673 12.1718 2.65701C12.4659 2.43432 12.7811 2.23964 13.1612 2.12894Z" fill="#536DFB"/>
</svg>
