<svg xmlns="http://www.w3.org/2000/svg" width="28" height="28" viewBox="0 0 28 28" fill="none">
  <path fill-rule="evenodd" clip-rule="evenodd" d="M14 3.90698C10.5835 3.90698 7.81395 6.67656 7.81395 10.093C7.81395 13.5095 10.5835 16.2791 14 16.2791C17.4165 16.2791 20.186 13.5095 20.186 10.093C20.186 6.67656 17.4165 3.90698 14 3.90698ZM9.76744 10.093C9.76744 7.75545 11.6624 5.86047 14 5.86047C16.3376 5.86047 18.2326 7.75545 18.2326 10.093C18.2326 12.4306 16.3376 14.3256 14 14.3256C11.6624 14.3256 9.76744 12.4306 9.76744 10.093Z" fill="#536DFB"/>
  <path fill-rule="evenodd" clip-rule="evenodd" d="M14 0C6.26801 0 0 6.26801 0 14C0 17.9701 1.65381 21.5556 4.30745 24.1022C6.82201 26.5154 10.2387 28 14 28C17.7613 28 21.178 26.5154 23.6926 24.1022C26.3462 21.5556 28 17.9701 28 14C28 6.26801 21.732 0 14 0ZM1.95349 14C1.95349 7.3469 7.3469 1.95349 14 1.95349C20.6531 1.95349 26.0465 7.3469 26.0465 14C26.0465 16.8583 25.0519 19.4832 23.3883 21.5491C22.3543 19.5776 20.2884 18.2326 17.907 18.2326H10.093C7.71164 18.2326 5.64575 19.5776 4.61165 21.5491C2.9481 19.4832 1.95349 16.8583 1.95349 14ZM17.907 20.186C19.7743 20.186 21.3609 21.3961 21.9222 23.0753C19.8038 24.9263 17.0336 26.0465 14 26.0465C10.9664 26.0465 8.19622 24.9263 6.07778 23.0753C6.63914 21.3961 8.22566 20.186 10.093 20.186H17.907Z" fill="#536DFB"/>
</svg>