<svg xmlns="http://www.w3.org/2000/svg" width="40" height="40" viewBox="0 0 40 40" fill="none">
  <circle cx="20" cy="20" r="20" fill="#536DFB"/>
  <path d="M22.4828 8L22.0345 24.5812H18.7586L18.3103 8H22.4828ZM20.5172 32C19.8046 32 19.2069 31.7607 18.7241 31.2821C18.2414 30.8034 18 30.2108 18 29.5043C18 28.7977 18.2414 28.2051 18.7241 27.7265C19.2069 27.2479 19.8046 27.0085 20.5172 27.0085C21.2069 27.0085 21.7931 27.2479 22.2759 27.7265C22.7586 28.2051 23 28.7977 23 29.5043C23 30.2108 22.7586 30.8034 22.2759 31.2821C21.7931 31.7607 21.2069 32 20.5172 32Z" fill="#F8FBFC"/>
</svg>