<svg xmlns="http://www.w3.org/2000/svg" width="16" height="20" viewBox="0 0 16 20" fill="none">
  <path d="M5.6487 11.8849V14.2446H11.1861V16.8633H5.6487V20H2.47652V16.8633H0V14.2446H2.47652V11.8849H0V9.32374H2.47652V0H9.15478C10.6388 0 11.891 0.268585 12.9113 0.805755C13.9501 1.32374 14.72 2.03357 15.2209 2.93525C15.7403 3.83693 16 4.84413 16 5.95683C16 6.97362 15.7681 7.93285 15.3043 8.83453C14.8406 9.73621 14.0986 10.4748 13.0783 11.0504C12.058 11.6067 10.7501 11.8849 9.15478 11.8849H5.6487ZM5.6487 9.32374H9.15478C10.3606 9.32374 11.2603 9.02638 11.8539 8.43165C12.4475 7.83693 12.7443 7.01199 12.7443 5.95683C12.7443 4.88249 12.4475 4.04796 11.8539 3.45324C11.2603 2.85851 10.3606 2.56115 9.15478 2.56115H5.6487V9.32374Z" fill="#F8FBFC"/>
</svg>