<svg xmlns="http://www.w3.org/2000/svg" width="20" height="20" viewBox="0 0 20 20" fill="none">
  <path fill-rule="evenodd" clip-rule="evenodd" d="M0.833496 2.29941C0.833496 1.94987 1.12241 1.6665 1.4788 1.6665H2.11072C3.30401 1.6665 4.31056 2.538 4.45857 3.69934L4.6297 5.04203H16.8275C17.748 5.04203 18.4531 5.84502 18.3165 6.7379L17.394 12.7703C17.2202 13.9063 16.2252 14.7467 15.054 14.7467H6.83259C5.66136 14.7467 4.66638 13.9063 4.49265 12.7703L3.42186 5.76883L3.4197 5.75345L3.17792 3.85634C3.11065 3.32846 2.65312 2.93233 2.11072 2.93233H1.4788C1.12241 2.93233 0.833496 2.64896 0.833496 2.29941ZM4.80935 6.30785L5.76898 12.5825C5.84795 13.0988 6.30021 13.4808 6.83259 13.4808H15.054C15.5864 13.4808 16.0387 13.0988 16.1177 12.5825L17.0402 6.55012C17.0597 6.42256 16.959 6.30785 16.8275 6.30785H4.80935Z" fill="#F8FBFC"/>
  <path d="M16.1056 17.4893C16.1056 17.9554 15.7203 18.3333 15.2452 18.3333C14.77 18.3333 14.3848 17.9554 14.3848 17.4893C14.3848 17.0233 14.77 16.6455 15.2452 16.6455C15.7203 16.6455 16.1056 17.0233 16.1056 17.4893Z" fill="#F8FBFC"/>
  <path d="M7.50158 17.4893C7.50158 17.9554 7.11636 18.3333 6.64117 18.3333C6.16598 18.3333 5.78076 17.9554 5.78076 17.4893C5.78076 17.0233 6.16598 16.6455 6.64117 16.6455C7.11636 16.6455 7.50158 17.0233 7.50158 17.4893Z" fill="#F8FBFC"/>
</svg>