<svg xmlns="http://www.w3.org/2000/svg" width="16" height="20" viewBox="0 0 16 20" fill="none">
  <path d="M16 17.4274V20H1.64341L1.02326 18.2849C1.89147 17.455 2.5323 16.6344 2.94574 15.823C3.35917 14.9931 3.56589 13.9696 3.56589 12.7524C3.56589 12.3836 3.51421 11.9963 3.41085 11.5906H0V9.40526H2.63566C2.20155 8.24343 1.9845 7.11849 1.9845 6.03043C1.9845 4.79484 2.28424 3.72522 2.88372 2.82158C3.4832 1.91793 4.31008 1.22637 5.36434 0.746888C6.4186 0.248963 7.63824 0 9.02326 0C11.2351 0 12.9096 0.55325 14.0465 1.65975C15.1835 2.76625 15.7726 4.17704 15.814 5.89212H12.5891C12.5891 4.89627 12.2997 4.11249 11.7209 3.5408C11.1421 2.95067 10.2429 2.6556 9.02326 2.6556C7.90698 2.6556 7.00775 2.94145 6.32558 3.51314C5.66408 4.08483 5.33333 4.97925 5.33333 6.1964C5.33333 6.73121 5.39535 7.24758 5.51938 7.7455C5.64341 8.24343 5.81912 8.79668 6.04651 9.40526H12.062V11.5906H6.75969C6.86305 12.0148 6.91473 12.4113 6.91473 12.7801C6.91473 14.5689 6.22222 16.118 4.83721 17.4274H16Z" fill="#F8FBFC"/>
</svg>