<svg xmlns="http://www.w3.org/2000/svg" width="16" height="20" viewBox="0 0 16 20" fill="none">
  <path d="M9.1215 17.0986C10.0187 17.0986 10.802 16.8545 11.4713 16.3662C12.1549 15.8592 12.6889 15.1174 13.0734 14.1408H16C15.4446 16.0188 14.5545 17.4648 13.3298 18.4789C12.105 19.493 10.7023 20 9.1215 20C7.45527 20 5.97419 19.4085 4.67824 18.2254C3.38229 17.0235 2.47797 15.4272 1.96529 13.4366H0V11.2394H1.58077C1.55229 10.7136 1.53805 10.3005 1.53805 10C1.53805 9.69953 1.55229 9.28639 1.58077 8.76056H0V6.56338H1.96529C2.47797 4.57277 3.38229 2.98592 4.67824 1.80282C5.97419 0.600939 7.45527 0 9.1215 0C10.688 0 12.0837 0.516432 13.3084 1.5493C14.5474 2.56338 15.4446 4.00939 16 5.88732H13.0734C12.6889 4.9108 12.1549 4.1784 11.4713 3.69014C10.802 3.1831 10.0187 2.92958 9.1215 2.92958C8.08189 2.92958 7.16333 3.24883 6.36582 3.88732C5.58255 4.52582 4.98442 5.41784 4.57143 6.56338H9.1215V8.76056H4.10147C4.05874 9.15493 4.03738 9.56808 4.03738 10C4.03738 10.4319 4.05874 10.8451 4.10147 11.2394H9.1215V13.4366H4.57143C4.98442 14.6009 5.58255 15.5023 6.36582 16.1408C7.16333 16.7793 8.08189 17.0986 9.1215 17.0986Z" fill="#F8FBFC"/>
</svg>