<svg xmlns="http://www.w3.org/2000/svg" width="16" height="20" viewBox="0 0 16 20" fill="none">
  <path d="M16 13.4558C16 14.2212 15.7245 14.9407 15.1736 15.6142C14.6446 16.2878 13.8512 16.8542 12.7934 17.3134C11.7576 17.7727 10.5234 18.0482 9.09091 18.1401V20H6.94215V18.1401C4.87052 18.0023 3.19559 17.5507 1.91736 16.7853C0.639119 16.0199 0 15.0096 0 13.7543H4.03306C4.09917 14.3513 4.37466 14.8488 4.8595 15.2468C5.34435 15.6295 6.03857 15.8745 6.94215 15.9816V10.93C5.46556 10.6697 4.26446 10.4095 3.33884 10.1493C2.41322 9.87371 1.61983 9.44508 0.958678 8.86337C0.319559 8.28167 0 7.48565 0 6.47532C0 5.20474 0.639119 4.15614 1.91736 3.32951C3.19559 2.48756 4.87052 1.9977 6.94215 1.85993V0H9.09091V1.85993C11.0303 1.9824 12.584 2.41102 13.7521 3.14581C14.9421 3.86529 15.6143 4.86031 15.7686 6.13088H11.7355C11.6694 5.65633 11.405 5.23536 10.9421 4.86797C10.4793 4.48527 9.86226 4.22503 9.09091 4.08726V9.04707C10.5675 9.292 11.7686 9.55224 12.6942 9.82778C13.6198 10.088 14.4022 10.509 15.0413 11.0907C15.6804 11.6571 16 12.4455 16 13.4558ZM3.83471 6.33754C3.83471 6.96517 4.09917 7.45503 4.6281 7.80712C5.17906 8.1592 5.95041 8.4424 6.94215 8.65672V4.01837C5.99449 4.09491 5.23416 4.33219 4.66116 4.7302C4.11019 5.1282 3.83471 5.66399 3.83471 6.33754ZM9.09091 15.9816C10.0606 15.8745 10.8209 15.6066 11.3719 15.178C11.9229 14.734 12.1983 14.2059 12.1983 13.5936C12.1983 12.9812 11.9229 12.5067 11.3719 12.1699C10.843 11.8178 10.0826 11.5346 9.09091 11.3203V15.9816Z" fill="#F8FBFC"/>
</svg>